<svg width="457" height="671" viewBox="0 0 457 671" fill="none" xmlns="http://www.w3.org/2000/svg">
<path d="M456.319 446.089C456.551 475.608 450.799 504.868 439.408 532.105C428.018 559.343 411.224 583.994 390.042 604.573C368.799 625.775 343.552 642.547 315.765 653.915C287.979 665.283 258.209 671.02 228.184 670.793C198.119 671.311 168.264 665.707 140.437 654.322C112.61 642.937 87.3937 626.01 66.3263 604.573C44.8165 584.244 27.8065 559.639 16.3915 532.343C4.97658 505.047 -0.590443 475.665 0.049539 446.089C0.049539 379.869 22.7954 320.629 50.652 263.091C82.0865 200.361 228.525 0 228.525 0C228.525 0 373.346 200.361 406.399 263.091C437.702 322.5 456.319 379.869 456.319 446.089Z" fill="white"/>
</svg>
