<svg width="365" height="128" viewBox="0 0 365 128" fill="none" xmlns="http://www.w3.org/2000/svg">
<path d="M247.521 108.443L182.751 63.2547L247.521 18.0667C255.889 12.3764 278.449 1.99989 301.746 1.9999C330.867 1.9999 363.001 23.5897 363.001 63.7568C363.001 103.924 330.867 125.514 301.746 125.514C278.449 125.514 255.889 114.133 247.521 108.443Z" stroke="#F00000" stroke-width="3"/>
<path d="M117.48 108.443L182.249 63.2547L117.48 18.0667C109.112 12.3764 86.5512 1.99991 63.2543 1.99991C34.1332 1.9999 1.99952 23.5897 1.99952 63.7568C1.99951 103.924 34.1332 125.514 63.2543 125.514C86.5512 125.514 109.112 114.133 117.48 108.443Z" stroke="#F00000" stroke-width="3"/>
</svg>
